# xmcd
#
# Track frame offsets: 
#        150
#        21094
#        39611
#        58889
#        79012
#        95203
#        112750
#        129578
#        150861
#        167228
#
# Disc length: 2499 seconds
#
# Revision: 0
# Processed by: cddbd v1.5.2PL0 Copyright (c) Steve Scherf et al.
# Submitted via: ExactAudioCopy v1.2
#
DISCID=7809c10a
DTITLE=The Wood Brothers - One Drop of Truth
DYEAR=2018
DGENRE=Blues
TTITLE0=River Takes the Town
TTITLE1=Happiness Jones
TTITLE2=Laughin' or Crying
TTITLE3=Strange as it Seems
TTITLE4=Sky High
TTITLE5=Seasick Emotions
TTITLE6=This is it
TTITLE7=Sparkling Wine
TTITLE8=One Drop of Truth
TTITLE9=Can't Look Away
EXTD=
EXTT0=
EXTT1=
EXTT2=
EXTT3=
EXTT4=
EXTT5=
EXTT6=
EXTT7=
EXTT8=
EXTT9=
PLAYORDER=
